<?xml version="1.0" encoding="UTF-8" standalone="no"?>
<!-- Created with Inkscape (http://www.inkscape.org/) -->
<svg width="133.97583mm" height="165.76018mm" viewBox="0 0 133.97583 165.76018" version="1.1" id="svg1" xml:space="preserve" xmlns="http://www.w3.org/2000/svg" xmlns:svg="http://www.w3.org/2000/svg"><defs id="defs1"/><g id="layer1" transform="translate(-42.098175,-69.127483)"><path id="path29" style="fill:#ffffff;stroke:none;stroke-width:1.5875;stroke-linecap:round;stroke-linejoin:round;stroke-dasharray:none" d="m 149.57467,234.06881 c -1.20706,-13.17706 -6.16941,-25.54941 -14.88706,-37.11705 l -3.94917,-2.91489 c 7.53165,-1.46566 14.20433,-4.18075 20.01802,-8.14526 l 2.01625,2.23598 c 6.29083,0.33197 12.51527,-0.53115 18.67332,-2.58937 -1.95862,-4.58119 -5.16213,-9.94251 -9.11258,-15.18764 6.35723,-5.11234 10.83883,-9.90931 12.94684,-15.28723 -6.88838,-0.58095 -12.58167,-0.36517 -17.07987,0.64734 l 4.08364,-3.32866 c 9.15496,-4.30946 12.2266,-16.30572 12.51513,-36.03256 0.25987,-17.766999 -1.20821,-32.111543 -7.70162,-43.184061 -23.1525,16.640499 -34.97941,30.864871 -35.48075,42.673121 -9.03185,-12.16988 -20.78284,-18.357675 -35.25296,-18.563381 0.44855,5.883561 2.20982,12.099061 5.56547,17.242871 -2.60459,0.285 -4.89449,1.21552 -7.85972,2.41078 C 81.9139,103.31673 70.39654,87.55317 59.65611,69.921181 51.61674,93.189765 48.32333,109.94383 48.20095,120.20488 c -0.18515,15.52283 2.06128,27.43202 8.31342,35.77296 l 3.09017,3.72732 -16.71265,-1.92839 c 2.53997,8.70706 7.80528,10.60074 12.3884,14.19991 -3.16214,5.67207 -6.71268,11.41931 -5.20079,16.18672 4.85389,1.05244 10.2443,0.31648 15.54393,-0.11687 8.59006,4.42164 18.81633,7.44083 30.67881,9.05755 -3.91084,0.19863 -8.61408,0.27081 -18.69947,-1.92838 1.28559,5.04496 4.90861,9.15495 10.86907,12.32996 -3.97364,3.11658 -6.62273,6.62273 -7.94727,10.51845 3.72041,-0.31166 7.12916,-0.70123 10.22626,-1.16872 -2.41534,5.43453 -4.05155,11.18072 -4.90861,17.23857"/><path style="display:inline;fill:none;stroke:#000000;stroke-width:1.5875;stroke-linecap:round;stroke-linejoin:round;stroke-dasharray:none" d="m 85.842225,234.09391 c 0.857058,-6.05785 2.493261,-11.80404 4.908608,-17.23857 -3.097098,0.46749 -6.505854,0.85706 -10.226267,1.16872 1.324545,-3.89572 3.973635,-7.40187 7.947271,-10.51845 -5.960455,-3.17501 -9.583476,-7.285 -10.869065,-12.32996 10.085388,2.19919 14.788633,2.12701 18.699464,1.92838 -11.862472,-1.61672 -22.088741,-4.63591 -30.678807,-9.05755 -5.299626,0.43335 -10.690037,1.16931 -15.543927,0.11687 -1.511893,-4.76741 2.038645,-10.51465 5.200787,-16.18672 -4.583117,-3.59917 -9.848433,-5.49285 -12.388394,-14.19991 l 16.712644,1.92839" id="path1"/><path style="fill:none;stroke:#000000;stroke-width:1.5875;stroke-linecap:round;stroke-linejoin:round;stroke-dasharray:none" d="M 56.514372,155.97779 C 50.262233,147.63685 48.015805,135.72766 48.200947,120.20483 48.323331,109.94378 51.616739,93.189711 59.656111,69.921127 70.396536,87.553116 81.75252,103.07461 93.724065,116.48562" id="path2"/><path style="fill:none;stroke:#000000;stroke-width:1.5875;stroke-linecap:round;stroke-linejoin:round;stroke-dasharray:none" d="m 108.92933,122.45362 c -8.90186,1.4537 -16.693022,1.47003 -23.373498,0.049 8.248511,-6.37014 12.821941,-8.00351 18.865408,-8.13417" id="path3"/><path style="fill:none;stroke:#000000;stroke-width:1.5875;stroke-linecap:round;stroke-linejoin:round;stroke-dasharray:none" d="m 102.7062,115.64248 c -3.8628,-5.34036 -5.860378,-12.04549 -6.342338,-18.367385 14.470118,0.205706 26.221108,6.393505 35.252958,18.563385 0.50134,-11.80825 12.32825,-26.032626 35.48075,-42.673125 6.49341,11.072518 7.96149,25.417062 7.70162,43.184065 -0.28853,19.72684 -3.36017,31.7231 -12.51513,36.03256" id="path4"/><path style="fill:none;stroke:#000000;stroke-width:1.5875;stroke-linecap:round;stroke-linejoin:round;stroke-dasharray:none" d="m 158.20042,155.71064 c 4.4982,-1.01251 10.19149,-1.22829 17.07987,-0.64734 -2.10801,5.37792 -6.58961,10.17489 -12.94684,15.28723 3.95045,5.24513 7.15396,10.60645 9.11258,15.18764 -6.15805,2.05822 -12.38249,2.92134 -18.67332,2.58937" id="path5"/><path style="fill:none;stroke:#000000;stroke-width:1.5875;stroke-linecap:round;stroke-linejoin:round;stroke-dasharray:none" d="m 130.73844,194.03682 c 7.53165,-1.46566 14.20433,-4.18075 20.01802,-8.14526" id="path6"/><path style="fill:none;stroke:#000000;stroke-width:1.5875;stroke-linecap:round;stroke-linejoin:round;stroke-dasharray:none" d="m 149.57467,234.06876 c -1.20706,-13.17706 -6.16941,-25.54941 -14.88706,-37.11705" id="path7"/><path style="fill:none;stroke:#000000;stroke-width:1.5875;stroke-linecap:round;stroke-linejoin:round;stroke-dasharray:none" d="m 65.550827,146.7702 29.868161,-1.53014" id="path8"/><path style="fill:none;stroke:#000000;stroke-width:1.5875;stroke-linecap:round;stroke-linejoin:round;stroke-dasharray:none" d="m 70.018809,170.27301 c -3.020683,-6.14442 -2.450658,-14.08419 1.710076,-23.81931" id="path9"/><path style="fill:#000000;stroke:#000000;stroke-width:1.5875;stroke-linecap:round;stroke-linejoin:round;stroke-dasharray:none" d="m 82.462417,145.90382 c -1.913764,14.21298 0.120951,23.04195 6.416431,23.02972 6.855292,-0.0133 8.93558,-9.06315 6.540138,-23.69348" id="path10"/><path style="fill:none;stroke:#000000;stroke-width:1.5875;stroke-linecap:round;stroke-linejoin:round;stroke-dasharray:none" d="m 122.79614,145.38242 c 9.23984,-2.08306 18.83678,-2.6187 28.79081,-1.60693" id="path11"/><path style="fill:none;stroke:#000000;stroke-width:1.5875;stroke-linecap:round;stroke-linejoin:round;stroke-dasharray:none" d="m 143.81625,143.29848 c 5.18001,5.87426 5.98294,14.53137 4.82467,24.08993" id="path12"/><path style="fill:#000000;stroke:#000000;stroke-width:1.5875;stroke-linecap:round;stroke-linejoin:round;stroke-dasharray:none" d="m 122.79614,145.38242 c -1.4135,14.98312 0.29444,21.02753 5.40107,21.02398 11.09313,-0.008 5.74191,-13.9332 6.60533,-22.84395" id="path13"/><path style="fill:none;stroke:#000000;stroke-width:1.5875;stroke-linecap:round;stroke-linejoin:round;stroke-dasharray:none" d="m 100.91318,170.17082 c 2.42931,-0.49182 4.91823,-0.68557 7.46677,-0.58124" id="path14"/><path style="display:inline;fill:none;stroke:#000000;stroke-width:1.5875;stroke-linecap:round;stroke-linejoin:round;stroke-dasharray:none" d="m 94.877166,182.46641 c 3.606705,2.98074 6.483124,2.17594 12.250874,-2.72738 6.42613,1.75942 13.67121,4.51852 16.18545,-1.43077" id="path15"/><path style="fill:none;stroke:#c41818;stroke-width:1.5875;stroke-linecap:round;stroke-linejoin:round;stroke-dasharray:none;stroke-opacity:1" d="m 60.71086,175.47397 c 1.7118,-1.90039 3.829789,-2.81431 6.353968,-2.74178 -0.290054,2.93274 -0.74563,3.68053 -1.211255,5.23634 -0.774793,2.58885 6.180894,-1.72715 9.088435,-3.27793" id="path16"/><path style="fill:none;stroke:#c41818;stroke-width:1.5875;stroke-linecap:round;stroke-linejoin:round;stroke-dasharray:none;stroke-opacity:1" d="m 140.12766,175.25679 4.11568,-3.7592 c 0.16444,2.01363 -0.14589,5.29329 0.48611,6.0601 2.43944,-0.92703 4.16641,-3.564 6.22213,-5.41196" id="path17"/></g></svg>