<?xml version="1.0" encoding="UTF-8"?>
<svg version="1.1" xmlns="http://www.w3.org/2000/svg" width="1000" height="1000">
<path d="M0 0 C330 0 660 0 1000 0 C1000 330 1000 660 1000 1000 C670 1000 340 1000 0 1000 C0 670 0 340 0 0 Z " fill="#000000" transform="translate(0,0)"/>
<path d="M0 0 C1.15628906 0.42539063 2.31257812 0.85078125 3.50390625 1.2890625 C36.58675304 14.24027016 64.23019592 40.80075283 81.8125 71.0625 C82.76431152 72.69457397 82.76431152 72.69457397 83.73535156 74.35961914 C87.74245198 81.38581862 91.02391263 88.48595132 94 96 C94.53557713 97.24092722 95.07622266 98.47969733 95.625 99.71484375 C100.08868541 110.17660644 102.63737852 120.8963299 105 132 C105.16129395 132.75506836 105.32258789 133.51013672 105.48876953 134.28808594 C107.53030684 143.94739837 109.15459351 153.31174397 109.16796875 163.203125 C109.17129715 164.08039246 109.17462555 164.95765991 109.17805481 165.86151123 C109.18310012 167.71723918 109.18546388 169.57297614 109.18530273 171.42871094 C109.18746108 174.20003284 109.20556383 176.97093736 109.22460938 179.7421875 C109.27305228 194.80910971 108.55469831 209.89890716 105.125 224.625 C104.95355469 225.39730957 104.78210938 226.16961914 104.60546875 226.96533203 C104.08073997 229.31272728 103.54078664 231.65626046 103 234 C102.66345787 235.50507326 102.32751071 237.0102797 101.9921875 238.515625 C99.05810641 251.45341721 95.10422593 263.97149449 90.75 276.5 C90.36231445 277.61640869 89.97462891 278.73281738 89.57519531 279.88305664 C80.25740411 306.53808057 80.25740411 306.53808057 74.21484375 319.25390625 C72.33447263 323.50439145 70.77484255 327.87464005 69.22998047 332.25708008 C67.57817702 336.83196725 65.46215048 340.80560587 63 345 C62.71125 345.9075 62.4225 346.815 62.125 347.75 C60.6894231 351.89722216 58.57975571 355.51267171 56.44140625 359.3359375 C54.88933382 362.10134252 54.88933382 362.10134252 53.5 365.5625 C51.82055529 369.41122745 49.73903092 372.82986771 47.5 376.375 C46.06701609 378.88272184 44.97137772 381.42714976 43.86230469 384.08935547 C42.22015669 387.7279314 40.14951652 391.12670376 38.125 394.5625 C37.64740234 395.37968506 37.16980469 396.19687012 36.67773438 397.03881836 C35.12297307 399.69520327 33.56178185 402.3477376 32 405 C30.92445982 406.83332198 29.84893915 408.66665541 28.7734375 410.5 C23.5882096 419.32240675 18.36281583 428.12119713 13.0625 436.875 C12.42634766 437.93473022 12.42634766 437.93473022 11.77734375 439.01586914 C9.23074866 443.1956285 6.47281554 447.11613891 3.50170898 451.00439453 C1.05345121 454.25785885 -1.21481206 457.63102207 -3.5 461 C-6.7771406 465.80111015 -10.08431435 470.54911958 -13.62109375 475.1640625 C-15.24184035 477.32199707 -16.77614971 479.53121621 -18.3125 481.75 C-32.2950869 501.82128448 -47.92971494 520.72268643 -64.375 538.8125 C-68.33752117 543.1988562 -72.07961562 547.73283288 -75.80078125 552.32421875 C-80.59822373 558.16124912 -85.65016926 563.66855023 -91 569 C-91.82757812 569.82757812 -92.65515625 570.65515625 -93.5078125 571.5078125 C-100.00520833 578.00520833 -106.50260417 584.50260417 -113 591 C-113.87591797 591.87970459 -114.75183594 592.75940918 -115.65429688 593.66577148 C-118.20700116 596.20598856 -120.83748014 598.63770513 -123.5 601.0625 C-124.55752652 602.02708633 -125.61480935 602.99193989 -126.671875 603.95703125 C-127.21650391 604.45412598 -127.76113281 604.9512207 -128.32226562 605.46337891 C-130.58291566 607.53388696 -132.83091725 609.61788035 -135.07910156 611.7019043 C-150.5113941 626 -150.5113941 626 -152 626 C-151.47496585 619.79116596 -150.34918378 614.44692743 -148.375 608.5625 C-145.3172313 598.94573689 -143.20501314 589.18738323 -141.1875 579.3125 C-141.03488708 578.5723465 -140.88227417 577.83219299 -140.72503662 577.0696106 C-138.1499822 564.5261718 -136.83199209 552.67844306 -136.86962891 539.86889648 C-136.87503103 537.67489855 -136.86963427 535.48110144 -136.86328125 533.28710938 C-136.86394138 531.88281205 -136.86522118 530.47851485 -136.8671875 529.07421875 C-136.86831543 527.81182373 -136.86944336 526.54942871 -136.87060547 525.2487793 C-136.97544507 522.61651415 -137.21311389 520.49310837 -138 518 C-138.51046875 518.64324219 -139.0209375 519.28648437 -139.546875 519.94921875 C-144.43132157 526.0201355 -149.49840555 531.82206651 -154.83691406 537.49487305 C-157.02955316 539.83122582 -159.14019807 542.17608057 -161.13671875 544.68359375 C-164.0230756 548.27187385 -167.49013566 551.03855196 -171 554 C-171.86625 554.75410156 -172.7325 555.50820313 -173.625 556.28515625 C-194.73776147 574.38590691 -219.0029336 587.67009442 -244.35180664 598.81176758 C-247.31814693 600.14275109 -250.25189059 601.53661183 -253.19140625 602.92578125 C-260.25979116 606.196228 -267.49040075 608.92143477 -274.8125 611.5625 C-276.15031374 612.04914127 -277.48812295 612.53579504 -278.82592773 613.02246094 C-286.53977305 615.8164132 -294.27037728 618.4740903 -302.13671875 620.8125 C-305.21037773 621.7332002 -308.23865718 622.75959625 -311.26953125 623.8125 C-312.19757568 624.13250977 -313.12562012 624.45251953 -314.08178711 624.78222656 C-315.88121457 625.40567997 -317.67786763 626.03722924 -319.47094727 626.67871094 C-325.31488154 628.69101173 -330.83126071 629.64806446 -337 630 C-330.49014381 619.52259832 -330.49014381 619.52259832 -327.125 615.25 C-322.94287647 609.7998922 -319.57460701 603.81934566 -316.1171875 597.89648438 C-315.10872375 596.18456427 -314.07164417 594.4895798 -313.03125 592.796875 C-303.54478114 577.01201288 -296.31454247 559.60818223 -291 542 C-290.60683594 540.80632813 -290.21367187 539.61265625 -289.80859375 538.3828125 C-286.16507258 527.29165301 -283.40491921 515.99078688 -280.64697266 504.65234375 C-279.77990028 501.09767421 -278.89138517 497.54864239 -278 494 C-278.93199219 494.6290625 -279.86398437 495.258125 -280.82421875 495.90625 C-296.74794909 506.61605278 -312.84515767 516.46076217 -330.375 524.3125 C-331.09969482 524.63798828 -331.82438965 524.96347656 -332.57104492 525.29882812 C-336.93083267 527.21285702 -341.31879141 528.81017115 -345.84814453 530.27416992 C-349.05052628 531.35434702 -352.13835044 532.6840601 -355.25 534 C-361.10362532 536.41604132 -366.872131 538.10946259 -373.09765625 539.359375 C-376.00509859 539.9419927 -376.00509859 539.9419927 -378.74609375 540.953125 C-382.26089884 542.08393864 -385.73558208 542.79324337 -389.35742188 543.48632812 C-391.87932851 543.97654353 -394.38369569 544.51681254 -396.890625 545.078125 C-424.29978854 551.12453012 -451.91675963 555.47819741 -479.96289062 556.8269043 C-482.93569631 556.9963351 -485.88753639 557.25716322 -488.8515625 557.5390625 C-495.9839092 558.15873129 -503.09582855 558.10923579 -510.25 558.0625 C-511.59244622 558.05746786 -512.9348943 558.05290802 -514.27734375 558.04882812 C-517.5182781 558.03717009 -520.75911369 558.02080774 -524 558 C-521.44298692 555.33212442 -518.90730918 553.10376988 -515.83984375 551.046875 C-514.65769287 550.24793823 -514.65769287 550.24793823 -513.45166016 549.43286133 C-512.20715088 548.59984497 -512.20715088 548.59984497 -510.9375 547.75 C-509.21408627 546.58314925 -507.49142508 545.41518622 -505.76953125 544.24609375 C-504.94275879 543.68519043 -504.11598633 543.12428711 -503.26416016 542.54638672 C-490.73317421 533.98791519 -478.79247852 524.53913868 -467 515 C-466.12859375 514.30390625 -465.2571875 513.6078125 -464.359375 512.890625 C-458.27995694 507.99235102 -452.49050157 502.85957032 -446.76953125 497.5546875 C-444.54081607 495.49886278 -442.29232081 493.48383043 -440 491.5 C-427.29922203 480.44901381 -414.82066453 468.92784657 -404 456 C-402.93914526 454.74860339 -401.8766812 453.49856903 -400.8125 452.25 C-400.36519531 451.71890625 -399.91789062 451.1878125 -399.45703125 450.640625 C-398.38623506 449.43490275 -397.26301982 448.27522654 -396.11328125 447.14453125 C-393.69883972 444.69438634 -391.54573491 442.10554374 -389.375 439.4375 C-388.59898437 438.48746094 -387.82296875 437.53742188 -387.0234375 436.55859375 C-384.92881643 433.98101669 -384.92881643 433.98101669 -383 431 C-382.34 431 -381.68 431 -381 431 C-381 430.34 -381 429.68 -381 429 C-382.05574219 429.24234375 -383.11148438 429.4846875 -384.19921875 429.734375 C-392.69103741 431.66398048 -401.19800534 433.48108078 -409.75 435.125 C-410.56299561 435.28323242 -411.37599121 435.44146484 -412.21362305 435.60449219 C-414.80498947 436.09553669 -417.40152101 436.54820182 -420 437 C-420.92546631 437.18167725 -421.85093262 437.36335449 -422.80444336 437.55053711 C-434.26353504 439.54415752 -445.80379479 439.33664549 -457.40112305 439.31567383 C-461.03009509 439.31252809 -464.65823841 439.33598582 -468.28710938 439.36132812 C-482.45460078 439.39945192 -496.05704533 438.52591493 -510 436 C-510.78550735 435.86046402 -511.57101471 435.72092804 -512.38032532 435.5771637 C-524.60184442 433.39815558 -524.60184442 433.39815558 -527 431 C-523.02035794 428.499382 -518.88850917 426.46052932 -514.625 424.5 C-513.99078125 424.20480469 -513.3565625 423.90960937 -512.703125 423.60546875 C-509.74813362 422.23652376 -506.79526271 420.91601796 -503.78125 419.6796875 C-475.57914368 407.66430793 -449.46073486 390.14597038 -427.35546875 369.046875 C-425 367 -425 367 -422 366 C-421.31513275 364.67592331 -420.65129797 363.34090759 -420 362 C-418 359.75 -418 359.75 -416 358 C-415.34 358 -414.68 358 -414 358 C-413.7525 357.43796875 -413.505 356.8759375 -413.25 356.296875 C-411.78725133 353.60907431 -410.03195127 351.53594518 -408 349.25 C-407.29875 348.45078125 -406.5975 347.6515625 -405.875 346.828125 C-404 345 -404 345 -402 345 C-402 344.01 -402 343.02 -402 342 C-403.30453125 342.04253906 -404.6090625 342.08507812 -405.953125 342.12890625 C-410.82451192 342.12225135 -415.08096317 341.25543811 -419.75 339.9375 C-420.55566406 339.71707031 -421.36132812 339.49664063 -422.19140625 339.26953125 C-434.90688331 335.7146667 -447.75783597 331.88581257 -459.66015625 326.11328125 C-462.11048965 324.9474298 -464.59064119 323.96822536 -467.125 323 C-471.18228447 321.41432078 -474.87307667 319.49350122 -478.6015625 317.24609375 C-481.15282818 315.84879676 -481.15282818 315.84879676 -484.6875 314.70703125 C-489.67453698 312.88486696 -493.93968959 310.13248216 -498.375 307.25 C-499.62083862 306.45082153 -499.62083862 306.45082153 -500.8918457 305.63549805 C-513.9411153 297.22415263 -513.9411153 297.22415263 -518 294 C-518 293.67 -518 293.34 -518 293 C-517.175 292.89453857 -516.35 292.78907715 -515.5 292.68041992 C-507.59091683 291.66364814 -499.68861583 290.60655325 -491.7890625 289.51855469 C-489.10954842 289.15184799 -486.429747 288.79616183 -483.74780273 288.44848633 C-447.74846974 283.54023254 -411.0017824 261.76670838 -382 241 C-381.1028125 240.360625 -380.205625 239.72125 -379.28125 239.0625 C-373.02563082 234.56407722 -366.97131956 229.86792356 -361 225 C-360.14921875 224.31292969 -359.2984375 223.62585938 -358.421875 222.91796875 C-350.82503637 216.75386723 -343.40223231 210.3949518 -336 204 C-334.76636719 202.93845703 -334.76636719 202.93845703 -333.5078125 201.85546875 C-330.80935747 199.51850486 -328.18383952 197.18414643 -325.66015625 194.65625 C-322.83859668 191.83883369 -319.94112711 189.12855666 -317 186.4375 C-316.49210938 185.96892578 -315.98421875 185.50035156 -315.4609375 185.01757812 C-313.12448065 182.87582602 -310.76689283 180.81545682 -308.28125 178.84765625 C-305.80745212 176.96622833 -305.80745212 176.96622833 -303.5 174 C-301.16278034 171.19533641 -298.86995667 169.22421642 -296 167 C-294.32160311 165.34514671 -292.65633615 163.67693355 -291 162 C-289.36507166 160.37581038 -287.72964058 158.7521267 -286.09375 157.12890625 C-284.70411114 155.7461663 -283.31448046 154.36341803 -281.92529297 152.98022461 C-280.50529815 151.56777001 -279.08273122 150.15790281 -277.66015625 148.74804688 C-273.207214 144.3108952 -268.96323185 139.87506237 -265 135 C-263.34479699 133.32194799 -261.67607531 131.65720461 -260 130 C-259.01040769 129.01172817 -258.02150294 128.02276749 -257.03320312 127.03320312 C-250.01106771 120.01106771 -242.98893229 112.98893229 -235.96679688 105.96679688 C-235.46641403 105.46613205 -234.96603119 104.96546722 -234.45048523 104.44963074 C-233.06055249 103.06051682 -231.66767128 101.674355 -230.2746582 100.28833008 C-227.6628953 97.66086912 -225.17181652 94.93430365 -222.6875 92.1875 C-218.82508886 87.93956409 -214.86727909 83.83169086 -210.7734375 79.8046875 C-208.55880389 77.55102951 -206.52420722 75.17901967 -204.51953125 72.73828125 C-202.45668306 70.37846776 -200.22093941 68.21151846 -198 66 C-196.39924129 64.38851566 -194.79899413 62.77652304 -193.19921875 61.1640625 C-191.36205135 59.31763651 -189.52480955 57.47128454 -187.6875 55.625 C-186.77548828 54.70460937 -185.86347656 53.78421875 -184.92382812 52.8359375 C-179.78181597 47.67549519 -174.56710822 42.69920116 -169 38 C-168.22914063 37.33613281 -167.45828125 36.67226562 -166.6640625 35.98828125 C-153.88445905 25.4855037 -139.64700374 16.64535476 -125 9 C-124.34241699 8.65485352 -123.68483398 8.30970703 -123.00732422 7.95410156 C-111.14923792 1.82209772 -98.84133556 -2.41323039 -86 -6 C-85.32743164 -6.1949707 -84.65486328 -6.38994141 -83.96191406 -6.59082031 C-57.20000526 -14.06357968 -25.46988234 -9.57645737 0 0 Z " fill="#FDFDFD" transform="translate(710,190)"/>
<path d="M0 0 C0.78103646 2.84002266 1.20329372 5.53781987 1.4296875 8.47265625 C1.5013916 9.35961182 1.5730957 10.24656738 1.64697266 11.16040039 C1.72222168 12.11809326 1.7974707 13.07578613 1.875 14.0625 C2.72312038 24.41308156 3.81874593 34.72375497 5.03466797 45.03735352 C5.22246826 46.66048462 5.22246826 46.66048462 5.4140625 48.31640625 C5.5270166 49.26974854 5.6399707 50.22309082 5.75634766 51.20532227 C6.01312072 54.15049384 6.0409144 57.04516211 6 60 C11.18119636 56.07728544 16.23044233 52.01448929 21.1875 47.8125 C21.72979248 47.35327148 22.27208496 46.89404297 22.83081055 46.42089844 C25.8321119 43.86990127 28.81020395 41.29489634 31.76953125 38.6953125 C32.39255127 38.15156982 33.01557129 37.60782715 33.6574707 37.04760742 C34.85765577 35.9988171 36.05307682 34.94454191 37.24291992 33.8840332 C40.37724023 31.15087645 43.11792634 29.42701543 47 28 C48.43153417 37.37572185 49.56046819 46.73713897 50.43261719 56.17871094 C50.62620566 58.26298078 50.82846769 60.3462943 51.03125 62.4296875 C51.71535822 69.63426219 52.21421949 76.75981417 52 84 C56.40451009 81.18032113 60.36573516 78.11171531 64.3125 74.6875 C67.99553538 71.52539798 71.6841839 68.42289152 75.5625 65.5 C79.93629483 62.17915578 83.90270534 58.46354454 87.84008789 54.64257812 C90.52238871 52.09970494 92.38820093 50.70781824 96 50 C96.71979548 55.79741661 97.43157383 61.59574334 98.13623047 67.39501953 C98.3765902 69.36403358 98.6190646 71.33279077 98.86376953 73.30126953 C99.21695505 76.14549414 99.56229684 78.99058341 99.90625 81.8359375 C100.07030334 83.13656631 100.07030334 83.13656631 100.2376709 84.46347046 C100.93719425 90.33418852 101.12416971 96.09001442 101 102 C104.39875805 100.06969491 107.2568682 98.02502292 110.125 95.375 C114.28694683 91.60387849 118.58369211 88.04756452 122.94921875 84.515625 C125.22968654 82.63518805 127.47625103 80.73468973 129.70703125 78.796875 C130.33649658 78.25063477 130.96596191 77.70439453 131.61450195 77.14160156 C132.85209688 76.06409434 134.08642955 74.98282634 135.31713867 73.89746094 C137.86382612 71.6819408 139.76376497 70.07874501 143 69 C143.11069824 69.8657666 143.22139648 70.7315332 143.33544922 71.62353516 C143.75586231 74.90765697 144.17720148 78.19165745 144.59912109 81.47558594 C144.77981735 82.88341767 144.9601689 84.29129371 145.14013672 85.69921875 C146.051757 92.82920981 146.98228446 99.95335453 148.01953125 107.06640625 C149.07728363 114.47278 150.06239503 121.86799084 150.8125 129.3125 C150.99103516 130.60478516 151.16957031 131.89707031 151.35351562 133.22851562 C152.21276507 142.51885353 152.21276507 142.51885353 148.77148438 146.72167969 C145.94866098 149.02229034 143.05419341 151.02085326 140 153 C138.84461541 153.98121802 137.71042551 154.98904678 136.6171875 156.0390625 C131.67227029 160.70221805 126.68406829 165.16530194 121.26171875 169.2734375 C115.54110407 173.64046978 110.01302477 178.26447556 104.55078125 182.94921875 C103.97038086 183.44583008 103.38998047 183.94244141 102.79199219 184.45410156 C101.66311002 185.42235228 100.53730466 186.39420514 99.41503906 187.37011719 C96.74592753 189.66006521 94.25411093 191.62778455 91 193 C89.42514513 185.920798 88.73993149 178.93175507 88.39697266 171.70361328 C88.09400702 165.72235725 87.46172414 159.81841994 86.66015625 153.88427734 C86.05123677 149.20320882 85.92126721 144.70822082 86 140 C80.30890488 144.63801846 74.63518102 149.29418129 69 154 C64.16517206 158.03739528 59.3033868 162.03961377 54.41796875 166.015625 C52.39966008 167.67200756 50.41492562 169.35798784 48.4375 171.0625 C46 173 46 173 44 173 C42.96615935 164.79953582 41.98147868 156.63017078 41.5 148.375 C41.1997466 143.24339643 40.66234186 138.21409951 39.9375 133.125 C39.16251433 127.66565652 38.80678345 122.50667166 39 117 C34.89770139 119.28578262 31.40778822 122.05998994 27.875 125.125 C26.71936921 126.11530637 25.56310939 127.10487913 24.40625 128.09375 C23.83261719 128.58488281 23.25898437 129.07601562 22.66796875 129.58203125 C19.38904404 132.36950121 16.04683215 135.0790749 12.70703125 137.79296875 C10.8000848 139.34769421 8.90246548 140.91389476 7.01171875 142.48828125 C6.03847656 143.29652344 5.06523438 144.10476563 4.0625 144.9375 C3.18722656 145.66839844 2.31195312 146.39929688 1.41015625 147.15234375 C-0.68268491 148.75674224 -2.59933363 149.93613161 -5 151 C-6.50656108 143.40868738 -7.31039989 135.95095625 -7.57006836 128.22875977 C-7.72287195 124.58874451 -8.11939264 121.24464273 -8.9921875 117.703125 C-10.27823016 112.31069928 -10.44952269 106.96137963 -10.625 101.4375 C-10.68300781 99.92446289 -10.68300781 99.92446289 -10.7421875 98.38085938 C-10.83546203 95.9207436 -10.92125516 93.46061634 -11 91 C-18.10320089 96.62572637 -18.10320089 96.62572637 -25 102.5 C-28 105 -28 105 -30 105 C-30.33 105.99 -30.66 106.98 -31 108 C-32.6796875 109.5078125 -32.6796875 109.5078125 -34.875 111.125 C-39.64182116 114.70394772 -44.23057203 118.46543423 -48.8125 122.27734375 C-51 124 -51 124 -52 124 C-54.23360813 109.22016748 -56.12122192 94.42413432 -57.61523438 79.55078125 C-58.01204781 75.88881768 -58.49493619 72.2443877 -58.984375 68.59375 C-59.26255812 66.18774663 -59.53866576 63.78150221 -59.8125 61.375 C-59.98015869 60.26753418 -60.14781738 59.16006836 -60.32055664 58.01904297 C-60.80984461 53.21170574 -61.0144934 50.30419196 -57.96777344 46.38745117 C-55.41559703 44.06571261 -52.80023235 42.01252558 -50 40 C-49.02289062 39.17628906 -48.04578125 38.35257812 -47.0390625 37.50390625 C-46.24242187 36.86324219 -45.44578125 36.22257812 -44.625 35.5625 C-40.72485016 32.40392794 -36.85063742 29.21881448 -33 26 C-29.10386862 22.74481251 -25.1883348 19.5164768 -21.25 16.3125 C-16.74478962 12.63702621 -12.36024336 8.84502861 -8 5 C-2.3164557 0 -2.3164557 0 0 0 Z " fill="#020202" transform="translate(597,375)"/>
<path d="M0 0 C0 0.66 0 1.32 0 2 C-0.9075 2.5775 -1.815 3.155 -2.75 3.75 C-6.70925749 6.49102442 -8.95926019 9.39815047 -10.75 13.875 C-11.66972194 21.69263647 -10.8005509 26.59505446 -6 33 C-1.0038055 37.56585002 4.88532115 37.27868516 11.33984375 37.2265625 C16.06676402 36.82397604 19.15436777 34.56375482 23 32 C24.06043404 42.43938398 20.61213198 52.83207226 14 61 C8.41313374 67.65317676 1.56466356 72.14347767 -7 74 C-20.05494208 74.7822706 -29.88644747 74.58165984 -40.25 65.8125 C-48.79259594 57.61858145 -53.90660632 49.07084422 -54.40234375 37.11962891 C-54.5211927 29.95402761 -53.83959864 24.16735532 -50 18 C-49.5875 17.25492187 -49.175 16.50984375 -48.75 15.7421875 C-43.49886101 6.94056248 -35.69890821 0.72820176 -25.921875 -2.37890625 C-16.88905714 -4.29898384 -8.56325565 -3.2474649 0 0 Z " fill="#040404" transform="translate(764,333)"/>
<path d="M0 0 C0.66 0.99 1.32 1.98 2 3 C1.41992188 3.1959375 0.83984375 3.391875 0.2421875 3.59375 C-6.84194486 6.30582708 -10.62331064 10.24662128 -14 17 C-14.74775189 24.99519329 -13.32339182 29.64398959 -8.75 36.25 C-4.71072194 40.28927806 -1.11798364 40.80745603 4.4375 41.3125 C11.08523309 40.72936552 16.03043242 38.50367062 21 34 C20.58064917 46.20310915 18.17751672 54.6816103 9.6484375 63.6640625 C-0.72124877 72.81018697 -10.55622994 74.73551408 -23.890625 74.18359375 C-28.19248123 73.80917293 -31.40162782 72.26592056 -35 70 C-35.65742187 69.68417969 -36.31484375 69.36835938 -36.9921875 69.04296875 C-44.82976194 64.97169954 -50.90153017 56.73943746 -54 48.5625 C-56.94861145 37.37393325 -56.77670314 26.26289066 -51.375 15.875 C-50.59125 14.92625 -49.8075 13.9775 -49 13 C-48.05640625 11.81083984 -48.05640625 11.81083984 -47.09375 10.59765625 C-42.05162376 4.55243095 -37.34683781 0.82286218 -30 -2 C-28.88625 -2.433125 -27.7725 -2.86625 -26.625 -3.3125 C-17.28436208 -5.0840003 -8.50185578 -4.5556539 0 0 Z " fill="#040404" transform="translate(674,286)"/>
<path d="M0 0 C0.66 0.33 1.32 0.66 2 1 C0.95199219 2.03060547 0.95199219 2.03060547 -0.1171875 3.08203125 C-1.02726563 3.98308594 -1.93734375 4.88414062 -2.875 5.8125 C-3.77992188 6.70582031 -4.68484375 7.59914063 -5.6171875 8.51953125 C-8.09831514 10.95638333 -8.09831514 10.95638333 -10 14 C-10.3125 11.80078125 -10.3125 11.80078125 -10 9 C-7.8125 6.54296875 -7.8125 6.54296875 -5 4.1875 C-4.071875 3.39730469 -3.14375 2.60710937 -2.1875 1.79296875 C-1.1046875 0.90544922 -1.1046875 0.90544922 0 0 Z " fill="#2D2D2D" transform="translate(547,415)"/>
<path d="M0 0 C1.04293785 3.38954801 1.30754089 6.46327974 1 10 C0.01 10.66 -0.98 11.32 -2 12 C-1.85831863 10.56208484 -1.71148957 9.1246763 -1.5625 7.6875 C-1.48128906 6.88699219 -1.40007813 6.08648438 -1.31640625 5.26171875 C-1 3 -1 3 0 0 Z " fill="#ABABAB" transform="translate(560,804)"/>
<path d="M0 0 C2.6015625 -0.29296875 2.6015625 -0.29296875 5.625 -0.1875 C7.12933594 -0.14689453 7.12933594 -0.14689453 8.6640625 -0.10546875 C9.43492187 -0.07066406 10.20578125 -0.03585937 11 0 C7.83759418 2.10827055 6.49342531 2.33817465 2.8125 2.625 C1.46091797 2.73714844 1.46091797 2.73714844 0.08203125 2.8515625 C-0.94857422 2.92503906 -0.94857422 2.92503906 -2 3 C-1.34 2.01 -0.68 1.02 0 0 Z " fill="#999999" transform="translate(375,817)"/>
</svg>